name analog
datacolumns 19
datarows 58
range 0.1595 0.188
endheader
time	ground_force_vx	ground_force_vy	ground_force_vz	ground_force_px	ground_force_py	ground_force_pz	l_ground_force_vx	l_ground_force_vy	l_ground_force_vz	l_ground_force_px	l_ground_force_py	l_ground_force_pz	ground_torque_x	ground_torque_y	ground_torque_z	l_ground_torque_x	l_ground_torque_y	l_ground_torque_z
0.1595	-0.0	-0.0	-0.0	-0.0	-0.0	-0.0	-13.633776664733888	4.755589485168457	-901.3460693359376	-0.0	-0.0	-0.0	-0.0	-0.0	-0.0	251527.921875	-14584.47265625	-4793.65576171875
0.16	-0.0	-0.0	-0.0	-0.0	-0.0	-0.0	-13.23179531097412	5.727081775665283	-898.4976806640625	-0.0	-0.0	-0.0	-0.0	-0.0	-0.0	250345.96875	-14621.080078125	-4733.82666015625
0.1605	-0.0	-0.0	-0.0	-0.0	-0.0	-0.0	-12.923857688903809	6.168620586395264	-893.369140625	-0.0	-0.0	-0.0	-0.0	-0.0	-0.0	249022.4375	-14301.99609375	-4655.5439453125
0.161	-0.0	-0.0	-0.0	-0.0	-0.0	-0.0	-12.77435302734375	6.317346096038818	-888.0027465820312	-0.0	-0.0	-0.0	-0.0	-0.0	-0.0	247318.421875	-14258.4521484375	-4561.6982421875
0.1615	-0.0	-0.0	-0.0	-0.0	-0.0	-0.0	-13.189757347106934	5.62031888961792	-881.1478881835938	-0.0	-0.0	-0.0	-0.0	-0.0	-0.0	244819.3125	-13845.42578125	-4616.716796875
0.162	-0.0	-0.0	-0.0	-0.0	-0.0	-0.0	-13.203773498535156	4.825654983520508	-875.6722412109375	-0.0	-0.0	-0.0	-0.0	-0.0	-0.0	242712.53125	-13673.1513671875	-4348.56640625
0.1625	-0.0	-0.0	-0.0	-0.0	-0.0	-0.0	-13.012136459350586	3.794184684753418	-867.4599609375	-0.0	-0.0	-0.0	-0.0	-0.0	-0.0	240331.8125	-13811.326171875	-4245.50830078125
0.163	-0.0	-0.0	-0.0	-0.0	-0.0	-0.0	-12.462258338928224	3.8893539905548096	-862.2796630859375	-0.0	-0.0	-0.0	-0.0	-0.0	-0.0	238134.171875	-13724.015625	-3967.4873046875
0.1635	-0.0	-0.0	-0.0	-0.0	-0.0	-0.0	-11.17755889892578	3.208071231842041	-856.649169921875	-0.0	-0.0	-0.0	-0.0	-0.0	-0.0	236047.0625	-14226.70703125	-3581.172607421875
0.164	-0.0	-0.0	-0.0	-0.0	-0.0	-0.0	-9.091564178466797	2.398977279663086	-851.4577026367188	-0.0	-0.0	-0.0	-0.0	-0.0	-0.0	234680.390625	-14450.544921875	-2972.260498046875
0.1645	-0.0	-0.0	-0.0	-0.0	-0.0	-0.0	-6.946125507354736	1.1338207721710205	-847.6181030273438	-0.0	-0.0	-0.0	-0.0	-0.0	-0.0	232588.828125	-15081.2236328125	-2278.41259765625
0.165	-0.0	-0.0	-0.0	-0.0	-0.0	-0.0	-5.203091144561768	0.4886256456375122	-844.9468994140625	-0.0	-0.0	-0.0	-0.0	-0.0	-0.0	231678.421875	-15702.44921875	-1827.594970703125
0.1655	-0.0	-0.0	-0.0	-0.0	-0.0	-0.0	-3.65022087097168	-0.8846732378005981	-842.4970703125	-0.0	-0.0	-0.0	-0.0	-0.0	-0.0	230915.921875	-16197.8681640625	-1451.4962158203125
0.166	-0.0	-0.0	-0.0	-0.0	-0.0	-0.0	-2.453588962554932	-2.2963638305664062	-842.9669799804688	-0.0	-0.0	-0.0	-0.0	-0.0	-0.0	230300.71875	-16849.6796875	-1168.9896240234375
0.1665	-0.0	-0.0	-0.0	-0.0	-0.0	-0.0	-1.8922090530395508	-3.195017099380493	-841.9808349609375	-0.0	-0.0	-0.0	-0.0	-0.0	-0.0	229579.390625	-17206.890625	-1079.8544921875
0.167	-0.0	-0.0	-0.0	-0.0	-0.0	-0.0	-1.4050697088241575	-4.062797546386719	-844.8905639648438	-0.0	-0.0	-0.0	-0.0	-0.0	-0.0	229728.90625	-17935.08203125	-916.695556640625
0.1675	-0.0	-0.0	-0.0	-0.0	-0.0	-0.0	-0.369617760181427	-3.959766149520874	-845.4708251953125	-0.0	-0.0	-0.0	-0.0	-0.0	-0.0	229998.78125	-18546.876953125	-678.60107421875
0.168	-0.0	-0.0	-0.0	-0.0	-0.0	-0.0	0.6061537861824036	-4.209927558898926	-849.6017456054688	-0.0	-0.0	-0.0	-0.0	-0.0	-0.0	230763.734375	-19151.05078125	-371.4020080566406
0.1685	-0.0	-0.0	-0.0	-0.0	-0.0	-0.0	1.2419509887695312	-4.5927276611328125	-853.9637451171875	-0.0	-0.0	-0.0	-0.0	-0.0	-0.0	231569.5625	-19134.595703125	-272.02642822265625
0.169	-0.0	-0.0	-0.0	-0.0	-0.0	-0.0	1.8181276321411133	-4.7545037269592285	-857.5751342773438	-0.0	-0.0	-0.0	-0.0	-0.0	-0.0	232647.9375	-19828.81640625	-227.24002075195312
0.1695	-0.0	-0.0	-0.0	-0.0	-0.0	-0.0	2.0990428924560547	-4.651165008544922	-861.5880737304688	-0.0	-0.0	-0.0	-0.0	-0.0	-0.0	233283.828125	-20112.1875	-182.69129943847656
0.17	-0.0	-0.0	-0.0	-0.0	-0.0	-0.0	2.4688525199890137	-4.282812118530273	-863.2149658203125	-0.0	-0.0	-0.0	-0.0	-0.0	-0.0	234198.96875	-20373.275390625	-59.19049835205078
0.1705	-0.0	-0.0	-0.0	-0.0	-0.0	-0.0	2.67643141746521	-3.931279182434082	-867.57470703125	-0.0	-0.0	-0.0	-0.0	-0.0	-0.0	234821.671875	-20641.72265625	-231.3554229736328
0.171	-0.0	-0.0	-0.0	-0.0	-0.0	-0.0	3.518065452575684	-3.578216552734375	-871.243408203125	-0.0	-0.0	-0.0	-0.0	-0.0	-0.0	235815.953125	-20885.16015625	-72.16785430908203
0.1715	-0.0	-0.0	-0.0	-0.0	-0.0	-0.0	3.903274536132813	-3.4445457458496094	-874.0958862304688	-0.0	-0.0	-0.0	-0.0	-0.0	-0.0	236602.734375	-21105.8359375	40.86506652832031
0.17200000000000001	-0.0	-0.0	-0.0	-0.0	-0.0	-0.0	4.331542491912842	-2.695307493209839	-876.6595458984375	-0.0	-0.0	-0.0	-0.0	-0.0	-0.0	237321.109375	-21556.986328125	86.27660369873047
0.17250000000000001	-0.0	-0.0	-0.0	-0.0	-0.0	-0.0	4.0960540771484375	-2.23862361907959	-879.3316040039062	-0.0	-0.0	-0.0	-0.0	-0.0	-0.0	238101.125	-21936.39453125	-26.16989517211914
0.17300000000000001	-0.0	-0.0	-0.0	-0.0	-0.0	-0.0	4.00738525390625	-1.3861541748046875	-880.6210327148438	-0.0	-0.0	-0.0	-0.0	-0.0	-0.0	238453.609375	-22125.5546875	-136.7563018798828
0.17350000000000002	-0.0	-0.0	-0.0	-0.0	-0.0	-0.0	3.694903612136841	-0.7948951721191406	-882.41162109375	-0.0	-0.0	-0.0	-0.0	-0.0	-0.0	239113.953125	-22402.798828125	-402.52142333984375
0.17400000000000002	-0.0	-0.0	-0.0	-0.0	-0.0	-0.0	3.60607647895813	0.1766433715820312	-884.793701171875	-0.0	-0.0	-0.0	-0.0	-0.0	-0.0	239446.4375	-22475.34765625	-555.8131713867188
0.17450000000000002	-0.0	-0.0	-0.0	-0.0	-0.0	-0.0	3.5375919342041016	0.8940088748931885	-886.3733520507812	-0.0	-0.0	-0.0	-0.0	-0.0	-0.0	240068.0	-22981.806640625	-625.4097290039062
0.17500000000000002	-0.0	-0.0	-0.0	-0.0	-0.0	-0.0	4.018099308013916	1.3092447519302368	-887.0299072265625	-0.0	-0.0	-0.0	-0.0	-0.0	-0.0	240429.859375	-23403.12109375	-609.2887573242188
0.17550000000000002	-0.0	-0.0	-0.0	-0.0	-0.0	-0.0	4.451230049133301	1.428768754005432	-890.7261352539062	-0.0	-0.0	-0.0	-0.0	-0.0	-0.0	240693.875	-23778.712890625	-455.3556823730469
0.176	-0.0	-0.0	-0.0	-0.0	-0.0	-0.0	4.780431747436523	1.6624290943145752	-889.8634643554688	-0.0	-0.0	-0.0	-0.0	-0.0	-0.0	240835.96875	-24372.55859375	-327.7496643066406
0.1765	-0.0	-0.0	-0.0	-0.0	-0.0	-0.0	6.105219841003418	1.580242156982422	-890.2120971679688	-0.0	-0.0	-0.0	-0.0	-0.0	-0.0	240565.203125	-24354.759765625	-65.16753387451172
0.177	-0.0	-0.0	-0.0	-0.0	-0.0	-0.0	6.564598083496094	1.5581977367401123	-888.491455078125	-0.0	-0.0	-0.0	-0.0	-0.0	-0.0	239959.34375	-24737.056640625	183.0487518310547
0.1775	-0.0	-0.0	-0.0	-0.0	-0.0	-0.0	7.808621406555176	1.0032804012298584	-885.350341796875	-0.0	-0.0	-0.0	-0.0	-0.0	-0.0	239412.390625	-24982.2890625	286.45733642578125
0.178	-0.0	-0.0	-0.0	-0.0	-0.0	-0.0	7.0808634757995605	-0.0883216857910156	-882.8441772460938	-0.0	-0.0	-0.0	-0.0	-0.0	-0.0	237771.796875	-24826.462890625	312.35382080078125
0.1785	-0.0	-0.0	-0.0	-0.0	-0.0	-0.0	7.435665130615234	-0.947097659111023	-877.5442504882812	-0.0	-0.0	-0.0	-0.0	-0.0	-0.0	236405.46875	-24453.630859375	352.8073425292969
0.179	-0.0	-0.0	-0.0	-0.0	-0.0	-0.0	7.09686279296875	-2.1919972896575928	-873.6408081054688	-0.0	-0.0	-0.0	-0.0	-0.0	-0.0	235259.4375	-24241.01171875	382.0145263671875
0.1795	-0.0	-0.0	-0.0	-0.0	-0.0	-0.0	6.846887588500977	-2.882443189620972	-868.1181640625	-0.0	-0.0	-0.0	-0.0	-0.0	-0.0	234009.484375	-24251.029296875	422.0841064453125
0.18	-0.0	-0.0	-0.0	-0.0	-0.0	-0.0	7.185573577880859	-3.2441701889038086	-865.9598388671875	-0.0	-0.0	-0.0	-0.0	-0.0	-0.0	232587.890625	-24217.2578125	435.8528442382813
0.1805	-0.0	-0.0	-0.0	-0.0	-0.0	-0.0	7.218154430389404	-3.749175548553467	-862.753662109375	-0.0	-0.0	-0.0	-0.0	-0.0	-0.0	232127.484375	-24210.5859375	648.3225708007812
0.181	-0.0	-0.0	-0.0	-0.0	-0.0	-0.0	7.629127502441406	-4.38356351852417	-862.3124389648438	-0.0	-0.0	-0.0	-0.0	-0.0	-0.0	232040.828125	-24282.87109375	645.9987182617188
0.1815	-0.0	-0.0	-0.0	-0.0	-0.0	-0.0	7.566555500030518	-4.023481369018555	-861.3570556640625	-0.0	-0.0	-0.0	-0.0	-0.0	-0.0	231792.46875	-24333.837890625	667.9409790039062
0.182	-0.0	-0.0	-0.0	-0.0	-0.0	-0.0	7.64559268951416	-3.935333013534546	-862.0552978515625	-0.0	-0.0	-0.0	-0.0	-0.0	-0.0	231939.75	-24426.310546875	430.7461242675781
0.1825	-0.0	-0.0	-0.0	-0.0	-0.0	-0.0	8.039668083190918	-3.929307699203491	-862.469482421875	-0.0	-0.0	-0.0	-0.0	-0.0	-0.0	232147.0625	-24721.11328125	516.5936279296875
0.183	-0.0	-0.0	-0.0	-0.0	-0.0	-0.0	8.056099891662598	-4.184137344360352	-863.298583984375	-0.0	-0.0	-0.0	-0.0	-0.0	-0.0	232511.875	-25152.849609375	531.134521484375
0.1835	-0.0	-0.0	-0.0	-0.0	-0.0	-0.0	8.388683319091797	-3.3396737575531006	-865.76513671875	-0.0	-0.0	-0.0	-0.0	-0.0	-0.0	233036.375	-25424.666015625	609.5158081054688
0.184	-0.0	-0.0	-0.0	-0.0	-0.0	-0.0	8.7437105178833	-1.921201229095459	-868.056640625	-0.0	-0.0	-0.0	-0.0	-0.0	-0.0	233962.1875	-25517.2890625	580.505615234375
0.1845	-0.0	-0.0	-0.0	-0.0	-0.0	-0.0	9.264363288879396	-0.5132471323013306	-871.0014038085938	-0.0	-0.0	-0.0	-0.0	-0.0	-0.0	234612.625	-25774.27734375	544.3663940429688
0.185	-0.0	-0.0	-0.0	-0.0	-0.0	-0.0	8.803886413574219	0.8711926937103271	-873.595947265625	-0.0	-0.0	-0.0	-0.0	-0.0	-0.0	235581.6875	-25803.71484375	421.7791442871094
0.1855	-0.0	-0.0	-0.0	-0.0	-0.0	-0.0	8.465616226196289	1.3416242599487305	-874.408447265625	-0.0	-0.0	-0.0	-0.0	-0.0	-0.0	235964.859375	-25966.583984375	286.075439453125
0.186	-0.0	-0.0	-0.0	-0.0	-0.0	-0.0	8.093667984008789	1.7704713344573977	-875.8881225585938	-0.0	-0.0	-0.0	-0.0	-0.0	-0.0	236259.6875	-25715.306640625	76.857177734375
0.1865	-0.0	-0.0	-0.0	-0.0	-0.0	-0.0	7.004304885864258	2.456109046936035	-876.5861206054688	-0.0	-0.0	-0.0	-0.0	-0.0	-0.0	236498.9375	-25578.669921875	35.26935195922852
0.187	-0.0	-0.0	-0.0	-0.0	-0.0	-0.0	6.387176513671875	3.250929355621338	-877.7672119140625	-0.0	-0.0	-0.0	-0.0	-0.0	-0.0	236493.890625	-25554.373046875	-113.2878646850586
0.1875	-0.0	-0.0	-0.0	-0.0	-0.0	-0.0	5.960728645324707	3.216808557510376	-877.994140625	-0.0	-0.0	-0.0	-0.0	-0.0	-0.0	236511.15625	-25298.2890625	-96.43927764892578
0.188	-0.0	-0.0	-0.0	-0.0	-0.0	-0.0	5.520162582397461	2.717966318130493	-877.1478881835938	-0.0	-0.0	-0.0	-0.0	-0.0	-0.0	236007.78125	-24741.205078125	-30.78393173217773
